<svg width="155" height="66" viewBox="0 0 155 66" fill="none" xmlns="http://www.w3.org/2000/svg">
<path d="M147 9V65H1V9H147Z" stroke="black"/>
<path d="M154 1V57H8V1H154Z" stroke="black"/>
<path d="M35.625 27.5547C35.9479 27.5547 36.1693 27.5911 36.2891 27.6641C36.4089 27.737 36.4688 27.8646 36.4688 28.0469V30.7344C36.4688 30.9115 36.388 31.0391 36.2266 31.1172C36.0703 31.1901 35.8073 31.2266 35.4375 31.2266C35.1927 31.2266 35.0026 31.2109 34.8672 31.1797C34.737 31.1432 34.6458 31.0911 34.5938 31.0234C34.5417 30.9557 34.5156 30.8594 34.5156 30.7344C34.5156 30.2865 34.3802 29.9401 34.1094 29.6953C33.8385 29.4505 33.4271 29.3281 32.875 29.3281C32.151 29.3281 31.6016 29.5885 31.2266 30.1094C30.8516 30.6302 30.6641 31.3802 30.6641 32.3594C30.6641 33.3281 30.862 34.0781 31.2578 34.6094C31.6589 35.1354 32.224 35.3984 32.9531 35.3984C33.5312 35.3984 34.0781 35.3203 34.5938 35.1641V33.8594H33.0859C32.9609 33.8594 32.8646 33.8385 32.7969 33.7969C32.7292 33.7552 32.6771 33.6771 32.6406 33.5625C32.6094 33.4479 32.5938 33.2812 32.5938 33.0625C32.5938 32.8438 32.6094 32.6771 32.6406 32.5625C32.6771 32.4479 32.7292 32.3698 32.7969 32.3281C32.8646 32.2812 32.9609 32.2578 33.0859 32.2578H36.7891C36.9141 32.2578 37.0104 32.2812 37.0781 32.3281C37.1458 32.3698 37.1953 32.4479 37.2266 32.5625C37.263 32.6771 37.2812 32.8438 37.2812 33.0625C37.2812 33.2812 37.263 33.4479 37.2266 33.5625C37.1953 33.6771 37.1458 33.7552 37.0781 33.7969C37.0104 33.8385 36.9141 33.8594 36.7891 33.8594H36.5469V35.8828C36.5469 36.0078 36.5208 36.1172 36.4688 36.2109C36.4219 36.3047 36.3542 36.375 36.2656 36.4219C35.7812 36.6719 35.25 36.8594 34.6719 36.9844C34.0938 37.1094 33.4948 37.1719 32.875 37.1719C32.0208 37.1719 31.2682 36.9766 30.6172 36.5859C29.9661 36.1953 29.4609 35.638 29.1016 34.9141C28.7474 34.1849 28.5703 33.3333 28.5703 32.3594C28.5703 31.3906 28.7448 30.5443 29.0938 29.8203C29.4427 29.0911 29.9245 28.5312 30.5391 28.1406C31.1589 27.75 31.8594 27.5547 32.6406 27.5547C33.5573 27.5547 34.2344 27.862 34.6719 28.4766V28.0469C34.6719 27.8698 34.7474 27.7448 34.8984 27.6719C35.0495 27.5938 35.2917 27.5547 35.625 27.5547ZM45.6797 27.7266C45.862 27.7266 45.9922 27.7656 46.0703 27.8438C46.1484 27.9219 46.1875 28.0521 46.1875 28.2344V30.5938C46.1875 30.7708 46.112 30.8984 45.9609 30.9766C45.8099 31.0495 45.5677 31.0859 45.2344 31.0859C44.9115 31.0859 44.6901 31.0495 44.5703 30.9766C44.4505 30.9036 44.3906 30.776 44.3906 30.5938V29.4062H41.2656V31.3828H43.1719C43.3542 31.3828 43.4818 31.4427 43.5547 31.5625C43.6276 31.6823 43.6641 31.9036 43.6641 32.2266C43.6641 32.5495 43.6276 32.7708 43.5547 32.8906C43.4818 33.0052 43.3542 33.0625 43.1719 33.0625H41.2656V35.3203H44.4688V33.7422C44.4688 33.5651 44.5443 33.4401 44.6953 33.3672C44.8516 33.2891 45.1042 33.25 45.4531 33.25C45.7969 33.25 46.0312 33.2865 46.1562 33.3594C46.2812 33.4323 46.3438 33.5599 46.3438 33.7422V36.4922C46.3438 36.6693 46.3047 36.7995 46.2266 36.8828C46.1484 36.9609 46.0182 37 45.8359 37H38.5547C38.4297 37 38.3333 36.9792 38.2656 36.9375C38.1979 36.8958 38.1458 36.8177 38.1094 36.7031C38.0781 36.5885 38.0625 36.4219 38.0625 36.2031C38.0625 35.9844 38.0781 35.8177 38.1094 35.7031C38.1458 35.5885 38.1979 35.5104 38.2656 35.4688C38.3333 35.4219 38.4297 35.3984 38.5547 35.3984H39.3125V29.3281H38.5547C38.4297 29.3281 38.3333 29.3073 38.2656 29.2656C38.1979 29.224 38.1458 29.1458 38.1094 29.0312C38.0781 28.9167 38.0625 28.75 38.0625 28.5312C38.0625 28.3125 38.0781 28.1458 38.1094 28.0312C38.1458 27.9167 38.1979 27.8385 38.2656 27.7969C38.3333 27.75 38.4297 27.7266 38.5547 27.7266H45.6797ZM55.5078 27.7266C55.6901 27.7266 55.8203 27.7656 55.8984 27.8438C55.9766 27.9219 56.0156 28.0521 56.0156 28.2344V31.5312C56.0156 31.7031 55.9427 31.8281 55.7969 31.9062C55.6562 31.9844 55.4375 32.0234 55.1406 32.0234C54.8542 32.0234 54.6536 31.987 54.5391 31.9141C54.4297 31.8359 54.375 31.7083 54.375 31.5312V29.4062H52.9609V35.3984H54.6484C54.7734 35.3984 54.8698 35.4219 54.9375 35.4688C55.0052 35.5104 55.0547 35.5885 55.0859 35.7031C55.1224 35.8177 55.1406 35.9844 55.1406 36.2031C55.1406 36.4219 55.1224 36.5885 55.0859 36.7031C55.0547 36.8177 55.0052 36.8958 54.9375 36.9375C54.8698 36.9792 54.7734 37 54.6484 37H49.3203C49.1953 37 49.099 36.9792 49.0312 36.9375C48.9635 36.8958 48.9115 36.8177 48.875 36.7031C48.8438 36.5885 48.8281 36.4219 48.8281 36.2031C48.8281 35.9844 48.8438 35.8177 48.875 35.7031C48.9115 35.5885 48.9635 35.5104 49.0312 35.4688C49.099 35.4219 49.1953 35.3984 49.3203 35.3984H51.0078V29.4062H49.5938V31.5312C49.5938 31.7031 49.5208 31.8281 49.375 31.9062C49.2344 31.9844 49.0156 32.0234 48.7188 32.0234C48.4323 32.0234 48.2318 31.987 48.1172 31.9141C48.0078 31.8359 47.9531 31.7083 47.9531 31.5312V28.2344C47.9531 28.0521 47.9922 27.9219 48.0703 27.8438C48.1536 27.7656 48.2839 27.7266 48.4609 27.7266H55.5078ZM73.5312 27.5547C73.8646 27.5547 74.1016 27.5938 74.2422 27.6719C74.3828 27.7448 74.4531 27.8698 74.4531 28.0469V30.1875C74.4531 30.3646 74.3958 30.4922 74.2812 30.5703C74.1719 30.6432 73.9896 30.6797 73.7344 30.6797C73.5625 30.6797 73.4271 30.6589 73.3281 30.6172C73.2292 30.5755 73.151 30.513 73.0938 30.4297C72.849 30.0443 72.5339 29.7474 72.1484 29.5391C71.763 29.3255 71.3177 29.2188 70.8125 29.2188C70.4323 29.2188 70.1328 29.3151 69.9141 29.5078C69.7005 29.7005 69.5938 29.9505 69.5938 30.2578C69.5938 30.4089 69.6406 30.5339 69.7344 30.6328C69.8281 30.7266 69.9635 30.8099 70.1406 30.8828C70.3698 30.9714 70.763 31.0625 71.3203 31.1562C71.862 31.2604 72.3047 31.3594 72.6484 31.4531C72.9922 31.5417 73.3151 31.6797 73.6172 31.8672C74.4505 32.3724 74.8672 33.1875 74.8672 34.3125C74.8672 34.8854 74.7448 35.3854 74.5 35.8125C74.2604 36.2396 73.8984 36.5729 73.4141 36.8125C72.9297 37.0521 72.3333 37.1719 71.625 37.1719C70.7552 37.1719 70.0182 36.9089 69.4141 36.3828V36.6797C69.4141 36.8568 69.349 36.9818 69.2188 37.0547C69.0938 37.1328 68.8672 37.1719 68.5391 37.1719C68.2057 37.1719 67.9688 37.1328 67.8281 37.0547C67.6875 36.9818 67.6172 36.8568 67.6172 36.6797V34.0703C67.6172 33.8932 67.6719 33.7682 67.7812 33.6953C67.8958 33.6172 68.0807 33.5781 68.3359 33.5781C68.5182 33.5781 68.6615 33.6016 68.7656 33.6484C68.875 33.6953 68.9583 33.776 69.0156 33.8906C69.2969 34.4271 69.6328 34.8307 70.0234 35.1016C70.4141 35.3724 70.8698 35.5078 71.3906 35.5078C71.849 35.5078 72.1979 35.4141 72.4375 35.2266C72.6771 35.0391 72.7969 34.7786 72.7969 34.4453C72.7969 34.237 72.7422 34.0625 72.6328 33.9219C72.5286 33.776 72.375 33.6536 72.1719 33.5547C72.0052 33.4714 71.8203 33.4036 71.6172 33.3516C71.4193 33.2995 71.125 33.2318 70.7344 33.1484C70.2865 33.0547 69.9167 32.9688 69.625 32.8906C69.3333 32.8125 69.0599 32.7057 68.8047 32.5703C68.4089 32.362 68.099 32.0859 67.875 31.7422C67.651 31.3932 67.5391 30.9427 67.5391 30.3906C67.5391 29.8385 67.6667 29.349 67.9219 28.9219C68.1771 28.4896 68.5339 28.1536 68.9922 27.9141C69.4557 27.6745 69.9844 27.5547 70.5781 27.5547C70.9948 27.5547 71.3802 27.6224 71.7344 27.7578C72.0885 27.8932 72.3958 28.0859 72.6562 28.3359V28.0469C72.6562 27.8698 72.7188 27.7448 72.8438 27.6719C72.974 27.5938 73.2031 27.5547 73.5312 27.5547ZM84.2891 27.7266C84.4714 27.7266 84.6016 27.7656 84.6797 27.8438C84.7578 27.9219 84.7969 28.0521 84.7969 28.2344V31.5312C84.7969 31.7031 84.724 31.8281 84.5781 31.9062C84.4375 31.9844 84.2188 32.0234 83.9219 32.0234C83.6354 32.0234 83.4349 31.987 83.3203 31.9141C83.2109 31.8359 83.1562 31.7083 83.1562 31.5312V29.4062H81.7422V35.3984H83.4297C83.5547 35.3984 83.651 35.4219 83.7188 35.4688C83.7865 35.5104 83.8359 35.5885 83.8672 35.7031C83.9036 35.8177 83.9219 35.9844 83.9219 36.2031C83.9219 36.4219 83.9036 36.5885 83.8672 36.7031C83.8359 36.8177 83.7865 36.8958 83.7188 36.9375C83.651 36.9792 83.5547 37 83.4297 37H78.1016C77.9766 37 77.8802 36.9792 77.8125 36.9375C77.7448 36.8958 77.6927 36.8177 77.6562 36.7031C77.625 36.5885 77.6094 36.4219 77.6094 36.2031C77.6094 35.9844 77.625 35.8177 77.6562 35.7031C77.6927 35.5885 77.7448 35.5104 77.8125 35.4688C77.8802 35.4219 77.9766 35.3984 78.1016 35.3984H79.7891V29.4062H78.375V31.5312C78.375 31.7031 78.3021 31.8281 78.1562 31.9062C78.0156 31.9844 77.7969 32.0234 77.5 32.0234C77.2135 32.0234 77.013 31.987 76.8984 31.9141C76.7891 31.8359 76.7344 31.7083 76.7344 31.5312V28.2344C76.7344 28.0521 76.7734 27.9219 76.8516 27.8438C76.9349 27.7656 77.0651 27.7266 77.2422 27.7266H84.2891ZM91.0078 27.7266C91.2161 27.7266 91.3854 27.7682 91.5156 27.8516C91.6458 27.9297 91.7396 28.0573 91.7969 28.2344L94.0625 35.3984H94.7422C94.8672 35.3984 94.9635 35.4193 95.0312 35.4609C95.099 35.5026 95.1484 35.5807 95.1797 35.6953C95.2161 35.8099 95.2344 35.9766 95.2344 36.1953C95.2344 36.4141 95.2161 36.5807 95.1797 36.6953C95.1484 36.8099 95.099 36.8906 95.0312 36.9375C94.9635 36.9792 94.8672 37 94.7422 37H91.4297C91.3047 37 91.2083 36.9792 91.1406 36.9375C91.0729 36.8906 91.0208 36.8099 90.9844 36.6953C90.9531 36.5807 90.9375 36.4141 90.9375 36.1953C90.9375 35.9766 90.9531 35.8099 90.9844 35.6953C91.0208 35.5807 91.0729 35.5026 91.1406 35.4609C91.2083 35.4193 91.3047 35.3984 91.4297 35.3984H92.1016L91.75 34.2656H88.9062L88.5547 35.3984H89.1328C89.2578 35.3984 89.3542 35.4193 89.4219 35.4609C89.4896 35.5026 89.5391 35.5807 89.5703 35.6953C89.6068 35.8099 89.625 35.9766 89.625 36.1953C89.625 36.4141 89.6068 36.5807 89.5703 36.6953C89.5391 36.8099 89.4896 36.8906 89.4219 36.9375C89.3542 36.9792 89.2578 37 89.1328 37H85.9766C85.8516 37 85.7552 36.9792 85.6875 36.9375C85.6198 36.8906 85.5703 36.8099 85.5391 36.6953C85.5026 36.5807 85.4844 36.4141 85.4844 36.1953C85.4844 35.9766 85.5026 35.8099 85.5391 35.6953C85.5703 35.5807 85.6198 35.5026 85.6875 35.4609C85.7552 35.4193 85.8516 35.3984 85.9766 35.3984H86.6328L88.6094 29.3281H87.3047C87.1797 29.3281 87.0833 29.3073 87.0156 29.2656C86.9479 29.2188 86.8958 29.138 86.8594 29.0234C86.8281 28.9089 86.8125 28.7422 86.8125 28.5234C86.8125 28.3047 86.8281 28.138 86.8594 28.0234C86.8958 27.9089 86.9479 27.8307 87.0156 27.7891C87.0833 27.7474 87.1797 27.7266 87.3047 27.7266H91.0078ZM90.3203 29.3281L89.3594 32.6641H91.3047L90.3672 29.3281H90.3203ZM100.234 27.7266C101.333 27.7266 102.177 27.9688 102.766 28.4531C103.354 28.9375 103.648 29.6406 103.648 30.5625C103.648 31.7656 103.003 32.5234 101.711 32.8359C101.992 32.9453 102.216 33.1068 102.383 33.3203C102.492 33.4609 102.591 33.6094 102.68 33.7656C102.773 33.9167 102.88 34.1094 103 34.3438C103.125 34.5938 103.221 34.7734 103.289 34.8828C103.393 35.0547 103.497 35.1849 103.602 35.2734C103.706 35.3568 103.823 35.3984 103.953 35.3984H104.102C104.227 35.3984 104.323 35.4219 104.391 35.4688C104.458 35.5104 104.508 35.5885 104.539 35.7031C104.576 35.8177 104.594 35.9844 104.594 36.2031C104.594 36.4219 104.576 36.5885 104.539 36.7031C104.508 36.8177 104.458 36.8958 104.391 36.9375C104.323 36.9792 104.227 37 104.102 37H103.344C102.932 37 102.599 36.9167 102.344 36.75C102.089 36.5833 101.854 36.3047 101.641 35.9141C101.536 35.7318 101.411 35.4818 101.266 35.1641C101.161 34.9245 101.062 34.7188 100.969 34.5469C100.875 34.3698 100.771 34.1979 100.656 34.0312C100.495 33.8073 100.315 33.6458 100.117 33.5469C99.9193 33.4479 99.6823 33.3984 99.4062 33.3984H98.9062V35.3984H99.6641C99.7891 35.3984 99.8854 35.4219 99.9531 35.4688C100.021 35.5104 100.07 35.5885 100.102 35.7031C100.138 35.8177 100.156 35.9844 100.156 36.2031C100.156 36.4219 100.138 36.5885 100.102 36.7031C100.07 36.8177 100.021 36.8958 99.9531 36.9375C99.8854 36.9792 99.7891 37 99.6641 37H96.1172C95.9922 37 95.8958 36.9792 95.8281 36.9375C95.7604 36.8958 95.7083 36.8177 95.6719 36.7031C95.6406 36.5885 95.625 36.4219 95.625 36.2031C95.625 35.9844 95.6406 35.8177 95.6719 35.7031C95.7083 35.5885 95.7604 35.5104 95.8281 35.4688C95.8958 35.4219 95.9922 35.3984 96.1172 35.3984H96.9531V29.3281H96.1172C95.9922 29.3281 95.8958 29.3073 95.8281 29.2656C95.7604 29.224 95.7083 29.1458 95.6719 29.0312C95.6406 28.9167 95.625 28.75 95.625 28.5312C95.625 28.3125 95.6406 28.1458 95.6719 28.0312C95.7083 27.9167 95.7604 27.8385 95.8281 27.7969C95.8958 27.75 95.9922 27.7266 96.1172 27.7266H100.234ZM98.9062 31.7188H100.07C100.602 31.7188 100.995 31.625 101.25 31.4375C101.505 31.2448 101.633 30.9531 101.633 30.5625C101.633 30.1719 101.505 29.8828 101.25 29.6953C100.995 29.5026 100.602 29.4062 100.07 29.4062H98.9062V31.7188ZM113.07 27.7266C113.253 27.7266 113.383 27.7656 113.461 27.8438C113.539 27.9219 113.578 28.0521 113.578 28.2344V31.5312C113.578 31.7031 113.505 31.8281 113.359 31.9062C113.219 31.9844 113 32.0234 112.703 32.0234C112.417 32.0234 112.216 31.987 112.102 31.9141C111.992 31.8359 111.938 31.7083 111.938 31.5312V29.4062H110.523V35.3984H112.211C112.336 35.3984 112.432 35.4219 112.5 35.4688C112.568 35.5104 112.617 35.5885 112.648 35.7031C112.685 35.8177 112.703 35.9844 112.703 36.2031C112.703 36.4219 112.685 36.5885 112.648 36.7031C112.617 36.8177 112.568 36.8958 112.5 36.9375C112.432 36.9792 112.336 37 112.211 37H106.883C106.758 37 106.661 36.9792 106.594 36.9375C106.526 36.8958 106.474 36.8177 106.438 36.7031C106.406 36.5885 106.391 36.4219 106.391 36.2031C106.391 35.9844 106.406 35.8177 106.438 35.7031C106.474 35.5885 106.526 35.5104 106.594 35.4688C106.661 35.4219 106.758 35.3984 106.883 35.3984H108.57V29.4062H107.156V31.5312C107.156 31.7031 107.083 31.8281 106.938 31.9062C106.797 31.9844 106.578 32.0234 106.281 32.0234C105.995 32.0234 105.794 31.987 105.68 31.9141C105.57 31.8359 105.516 31.7083 105.516 31.5312V28.2344C105.516 28.0521 105.555 27.9219 105.633 27.8438C105.716 27.7656 105.846 27.7266 106.023 27.7266H113.07ZM122.43 27.7266C122.612 27.7266 122.742 27.7656 122.82 27.8438C122.898 27.9219 122.938 28.0521 122.938 28.2344V30.5938C122.938 30.7708 122.862 30.8984 122.711 30.9766C122.56 31.0495 122.318 31.0859 121.984 31.0859C121.661 31.0859 121.44 31.0495 121.32 30.9766C121.201 30.9036 121.141 30.776 121.141 30.5938V29.4062H118.016V31.3828H119.922C120.104 31.3828 120.232 31.4427 120.305 31.5625C120.378 31.6823 120.414 31.9036 120.414 32.2266C120.414 32.5495 120.378 32.7708 120.305 32.8906C120.232 33.0052 120.104 33.0625 119.922 33.0625H118.016V35.3203H121.219V33.7422C121.219 33.5651 121.294 33.4401 121.445 33.3672C121.602 33.2891 121.854 33.25 122.203 33.25C122.547 33.25 122.781 33.2865 122.906 33.3594C123.031 33.4323 123.094 33.5599 123.094 33.7422V36.4922C123.094 36.6693 123.055 36.7995 122.977 36.8828C122.898 36.9609 122.768 37 122.586 37H115.305C115.18 37 115.083 36.9792 115.016 36.9375C114.948 36.8958 114.896 36.8177 114.859 36.7031C114.828 36.5885 114.812 36.4219 114.812 36.2031C114.812 35.9844 114.828 35.8177 114.859 35.7031C114.896 35.5885 114.948 35.5104 115.016 35.4688C115.083 35.4219 115.18 35.3984 115.305 35.3984H116.062V29.3281H115.305C115.18 29.3281 115.083 29.3073 115.016 29.2656C114.948 29.224 114.896 29.1458 114.859 29.0312C114.828 28.9167 114.812 28.75 114.812 28.5312C114.812 28.3125 114.828 28.1458 114.859 28.0312C114.896 27.9167 114.948 27.8385 115.016 27.7969C115.083 27.75 115.18 27.7266 115.305 27.7266H122.43ZM128.578 27.7266C129.49 27.7266 130.273 27.9062 130.93 28.2656C131.586 28.625 132.089 29.1536 132.438 29.8516C132.786 30.5443 132.961 31.3802 132.961 32.3594C132.961 33.3385 132.786 34.1771 132.438 34.875C132.089 35.5677 131.586 36.0964 130.93 36.4609C130.273 36.8203 129.49 37 128.578 37H124.898C124.773 37 124.677 36.9792 124.609 36.9375C124.542 36.8958 124.49 36.8177 124.453 36.7031C124.422 36.5885 124.406 36.4219 124.406 36.2031C124.406 35.9844 124.422 35.8177 124.453 35.7031C124.49 35.5885 124.542 35.5104 124.609 35.4688C124.677 35.4219 124.773 35.3984 124.898 35.3984H125.656V29.3281H124.898C124.773 29.3281 124.677 29.3073 124.609 29.2656C124.542 29.224 124.49 29.1458 124.453 29.0312C124.422 28.9167 124.406 28.75 124.406 28.5312C124.406 28.3125 124.422 28.1458 124.453 28.0312C124.49 27.9167 124.542 27.8385 124.609 27.7969C124.677 27.75 124.773 27.7266 124.898 27.7266H128.578ZM127.609 35.3203H128.422C129.229 35.3203 129.839 35.0703 130.25 34.5703C130.661 34.0651 130.867 33.3281 130.867 32.3594C130.867 31.3906 130.661 30.6562 130.25 30.1562C129.839 29.6562 129.229 29.4062 128.422 29.4062H127.609V35.3203Z" fill="black"/>
</svg>
