<svg width="140" height="71" viewBox="0 0 140 71" fill="none" xmlns="http://www.w3.org/2000/svg">
<path d="M130 10H1V70H130V10Z" stroke="black"/>
<path d="M36.1074 27.4082C36.3353 27.4082 36.498 27.457 36.5957 27.5547C36.6934 27.6523 36.7422 27.8151 36.7422 28.043V30.9922C36.7422 31.2135 36.6478 31.373 36.459 31.4707C36.2702 31.5618 35.9674 31.6074 35.5508 31.6074C35.1471 31.6074 34.8704 31.5618 34.7207 31.4707C34.571 31.3796 34.4961 31.2201 34.4961 30.9922V29.5078H30.5898V31.9785H32.9727C33.2005 31.9785 33.36 32.0534 33.4512 32.2031C33.5423 32.3529 33.5879 32.6296 33.5879 33.0332C33.5879 33.4368 33.5423 33.7135 33.4512 33.8633C33.36 34.0065 33.2005 34.0781 32.9727 34.0781H30.5898V36.9004H34.5938V34.9277C34.5938 34.7064 34.6882 34.5501 34.877 34.459C35.0723 34.3613 35.388 34.3125 35.8242 34.3125C36.2539 34.3125 36.5469 34.3581 36.7031 34.4492C36.8594 34.5404 36.9375 34.6999 36.9375 34.9277V38.3652C36.9375 38.5866 36.8887 38.7493 36.791 38.8535C36.6934 38.9512 36.5306 39 36.3027 39H27.2012C27.0449 39 26.9245 38.974 26.8398 38.9219C26.7552 38.8698 26.6901 38.7721 26.6445 38.6289C26.6055 38.4857 26.5859 38.2773 26.5859 38.0039C26.5859 37.7305 26.6055 37.5221 26.6445 37.3789C26.6901 37.2357 26.7552 37.138 26.8398 37.0859C26.9245 37.0273 27.0449 36.998 27.2012 36.998H28.1484V29.4102H27.2012C27.0449 29.4102 26.9245 29.3841 26.8398 29.332C26.7552 29.2799 26.6901 29.1823 26.6445 29.0391C26.6055 28.8958 26.5859 28.6875 26.5859 28.4141C26.5859 28.1406 26.6055 27.9323 26.6445 27.7891C26.6901 27.6458 26.7552 27.5482 26.8398 27.4961C26.9245 27.4375 27.0449 27.4082 27.2012 27.4082H36.1074ZM48.5879 29.9766C48.7441 29.9766 48.8646 30.0059 48.9492 30.0645C49.0339 30.1165 49.0957 30.2142 49.1348 30.3574C49.1803 30.5007 49.2031 30.709 49.2031 30.9824C49.2031 31.2559 49.1803 31.4642 49.1348 31.6074C49.0957 31.7507 49.0339 31.8483 48.9492 31.9004C48.8646 31.9525 48.7441 31.9785 48.5879 31.9785H48.0117L45.6582 34.4297L48.1875 36.998H48.6855C48.8418 36.998 48.9622 37.0273 49.0469 37.0859C49.1315 37.138 49.1934 37.2357 49.2324 37.3789C49.278 37.5221 49.3008 37.7305 49.3008 38.0039C49.3008 38.2773 49.278 38.4857 49.2324 38.6289C49.1934 38.7721 49.1315 38.8698 49.0469 38.9219C48.9622 38.974 48.8418 39 48.6855 39H44.9355C44.7793 39 44.6589 38.974 44.5742 38.9219C44.4896 38.8698 44.4245 38.7721 44.3789 38.6289C44.3398 38.4857 44.3203 38.2773 44.3203 38.0039C44.3203 37.7305 44.3398 37.5221 44.3789 37.3789C44.4245 37.2357 44.4896 37.138 44.5742 37.0859C44.6589 37.0273 44.7793 36.998 44.9355 36.998H45.0723L43.793 35.6895L42.582 36.998H42.748C42.9043 36.998 43.0247 37.0273 43.1094 37.0859C43.194 37.138 43.2559 37.2357 43.2949 37.3789C43.3405 37.5221 43.3633 37.7305 43.3633 38.0039C43.3633 38.2773 43.3405 38.4857 43.2949 38.6289C43.2559 38.7721 43.194 38.8698 43.1094 38.9219C43.0247 38.974 42.9043 39 42.748 39H39.291C39.1348 39 39.0143 38.974 38.9297 38.9219C38.8451 38.8698 38.7799 38.7721 38.7344 38.6289C38.6953 38.4857 38.6758 38.2773 38.6758 38.0039C38.6758 37.7305 38.6953 37.5221 38.7344 37.3789C38.7799 37.2357 38.8451 37.138 38.9297 37.0859C39.0143 37.0273 39.1348 36.998 39.291 36.998H39.8184L42.2988 34.4199L39.8965 31.9785H39.3887C39.2324 31.9785 39.112 31.9525 39.0273 31.9004C38.9427 31.8483 38.8776 31.7507 38.832 31.6074C38.793 31.4642 38.7734 31.2559 38.7734 30.9824C38.7734 30.709 38.793 30.5007 38.832 30.3574C38.8776 30.2142 38.9427 30.1165 39.0273 30.0645C39.112 30.0059 39.2324 29.9766 39.3887 29.9766H43.041C43.1973 29.9766 43.3177 30.0059 43.4023 30.0645C43.487 30.1165 43.5488 30.2142 43.5879 30.3574C43.6335 30.5007 43.6562 30.709 43.6562 30.9824C43.6562 31.2559 43.6335 31.4642 43.5879 31.6074C43.5488 31.7507 43.487 31.8483 43.4023 31.9004C43.3177 31.9525 43.1973 31.9785 43.041 31.9785H42.9141L44.1641 33.2578L45.3457 31.9785H45.1309C44.9746 31.9785 44.8542 31.9525 44.7695 31.9004C44.6849 31.8483 44.6198 31.7507 44.5742 31.6074C44.5352 31.4642 44.5156 31.2559 44.5156 30.9824C44.5156 30.709 44.5352 30.5007 44.5742 30.3574C44.6198 30.2142 44.6849 30.1165 44.7695 30.0645C44.8542 30.0059 44.9746 29.9766 45.1309 29.9766H48.5879ZM56.8203 29.7617C57.6732 29.7617 58.4186 29.9701 59.0566 30.3867C59.6947 30.8034 60.1829 31.3698 60.5215 32.0859C60.86 32.8021 61.0293 33.6029 61.0293 34.4883C61.0293 35.3737 60.86 36.1745 60.5215 36.8906C60.1829 37.6068 59.6947 38.1732 59.0566 38.5898C58.4186 39.0065 57.6732 39.2148 56.8203 39.2148C56.3125 39.2148 55.8405 39.1172 55.4043 38.9219C54.9681 38.7201 54.584 38.4336 54.252 38.0625V40.7871H55.8828C56.0391 40.7871 56.1595 40.8132 56.2441 40.8652C56.3288 40.9173 56.3906 41.015 56.4297 41.1582C56.4753 41.3014 56.498 41.5098 56.498 41.7832C56.498 42.0566 56.4753 42.265 56.4297 42.4082C56.3906 42.5514 56.3288 42.6491 56.2441 42.7012C56.1595 42.7598 56.0391 42.7891 55.8828 42.7891H50.9609C50.8047 42.7891 50.6842 42.763 50.5996 42.7109C50.515 42.6589 50.4499 42.5612 50.4043 42.418C50.3652 42.2747 50.3457 42.0664 50.3457 41.793C50.3457 41.5195 50.3652 41.3112 50.4043 41.168C50.4499 41.0247 50.515 40.9238 50.5996 40.8652C50.6842 40.8132 50.8047 40.7871 50.9609 40.7871H51.8105V31.9785H50.9609C50.8047 31.9785 50.6842 31.9525 50.5996 31.9004C50.515 31.8483 50.4499 31.7507 50.4043 31.6074C50.3652 31.4642 50.3457 31.2559 50.3457 30.9824C50.3457 30.709 50.3652 30.5007 50.4043 30.3574C50.4499 30.2142 50.515 30.1165 50.5996 30.0645C50.6842 30.0059 50.8047 29.9766 50.9609 29.9766H53.2461C53.4674 29.9766 53.6237 30.0254 53.7148 30.123C53.8125 30.2142 53.8613 30.3704 53.8613 30.5918V31.4121C54.1999 30.8913 54.623 30.4876 55.1309 30.2012C55.6387 29.9082 56.2018 29.7617 56.8203 29.7617ZM56.4297 31.9785C56.013 31.9785 55.6354 32.0762 55.2969 32.2715C54.9583 32.4668 54.6882 32.7565 54.4863 33.1406C54.2845 33.5182 54.1836 33.9674 54.1836 34.4883C54.1836 35.0091 54.2845 35.4616 54.4863 35.8457C54.6882 36.2233 54.9583 36.5098 55.2969 36.7051C55.6354 36.9004 56.013 36.998 56.4297 36.998C56.8333 36.998 57.1849 36.8971 57.4844 36.6953C57.7839 36.487 58.0117 36.194 58.168 35.8164C58.3307 35.4388 58.4121 34.9961 58.4121 34.4883C58.4121 33.9805 58.3307 33.5378 58.168 33.1602C58.0117 32.7826 57.7839 32.4928 57.4844 32.291C57.1849 32.0827 56.8333 31.9785 56.4297 31.9785ZM68.6172 26.1875C68.8385 26.1875 68.9948 26.2363 69.0859 26.334C69.1836 26.4251 69.2324 26.5814 69.2324 26.8027V36.998H71.9766C72.1328 36.998 72.2533 37.0273 72.3379 37.0859C72.4225 37.138 72.4844 37.2357 72.5234 37.3789C72.569 37.5221 72.5918 37.7305 72.5918 38.0039C72.5918 38.2773 72.569 38.4857 72.5234 38.6289C72.4844 38.7721 72.4225 38.8698 72.3379 38.9219C72.2533 38.974 72.1328 39 71.9766 39H64.125C63.9688 39 63.8483 38.974 63.7637 38.9219C63.679 38.8698 63.6139 38.7721 63.5684 38.6289C63.5293 38.4857 63.5098 38.2773 63.5098 38.0039C63.5098 37.7305 63.5293 37.5221 63.5684 37.3789C63.6139 37.2357 63.679 37.138 63.7637 37.0859C63.8483 37.0273 63.9688 36.998 64.125 36.998H66.791V28.1895H64.5156C64.3594 28.1895 64.2389 28.1634 64.1543 28.1113C64.0697 28.0592 64.0046 27.9616 63.959 27.8184C63.9199 27.6751 63.9004 27.4668 63.9004 27.1934C63.9004 26.9199 63.9199 26.7116 63.959 26.5684C64.0046 26.4251 64.0697 26.3275 64.1543 26.2754C64.2389 26.2168 64.3594 26.1875 64.5156 26.1875H68.6172ZM79.9648 29.7617C80.9544 29.7617 81.8203 29.9635 82.5625 30.3672C83.3047 30.7708 83.8743 31.3307 84.2715 32.0469C84.6751 32.763 84.877 33.5768 84.877 34.4883C84.877 35.3997 84.6751 36.2135 84.2715 36.9297C83.8743 37.6458 83.3047 38.2057 82.5625 38.6094C81.8203 39.013 80.9544 39.2148 79.9648 39.2148C78.9753 39.2148 78.1094 39.013 77.3672 38.6094C76.625 38.2057 76.0521 37.6458 75.6484 36.9297C75.2513 36.2135 75.0527 35.3997 75.0527 34.4883C75.0527 33.5768 75.2513 32.763 75.6484 32.0469C76.0521 31.3307 76.625 30.7708 77.3672 30.3672C78.1094 29.9635 78.9753 29.7617 79.9648 29.7617ZM79.9648 31.9785C79.4961 31.9785 79.0892 32.0827 78.7441 32.291C78.3991 32.4928 78.1322 32.7826 77.9434 33.1602C77.7611 33.5378 77.6699 33.9805 77.6699 34.4883C77.6699 34.9961 77.7611 35.4388 77.9434 35.8164C78.1322 36.194 78.3991 36.487 78.7441 36.6953C79.0892 36.8971 79.4961 36.998 79.9648 36.998C80.4336 36.998 80.8405 36.8971 81.1855 36.6953C81.5306 36.487 81.7943 36.194 81.9766 35.8164C82.1654 35.4388 82.2598 34.9961 82.2598 34.4883C82.2598 33.9805 82.1654 33.5378 81.9766 33.1602C81.7943 32.7826 81.5306 32.4928 81.1855 32.291C80.8405 32.0827 80.4336 31.9785 79.9648 31.9785ZM95.0137 29.7617C95.5671 29.7617 96.0879 29.944 96.5762 30.3086C96.8626 30.5169 97.0059 30.7904 97.0059 31.1289C97.0059 31.3438 96.9473 31.5977 96.8301 31.8906C96.7129 32.1836 96.5794 32.4049 96.4297 32.5547C96.2865 32.7044 96.1335 32.7793 95.9707 32.7793C95.8796 32.7793 95.7819 32.7533 95.6777 32.7012C95.3132 32.4993 94.9355 32.3984 94.5449 32.3984C94.0436 32.3984 93.5749 32.5579 93.1387 32.877C92.7025 33.196 92.3509 33.6354 92.084 34.1953C91.8236 34.7552 91.6934 35.3802 91.6934 36.0703V36.998H94.4961C94.6523 36.998 94.7728 37.0273 94.8574 37.0859C94.9421 37.138 95.0039 37.2357 95.043 37.3789C95.0885 37.5221 95.1113 37.7305 95.1113 38.0039C95.1113 38.2773 95.0885 38.4857 95.043 38.6289C95.0039 38.7721 94.9421 38.8698 94.8574 38.9219C94.7728 38.974 94.6523 39 94.4961 39H87.8164C87.6602 39 87.5397 38.974 87.4551 38.9219C87.3704 38.8698 87.3053 38.7721 87.2598 38.6289C87.2207 38.4857 87.2012 38.2773 87.2012 38.0039C87.2012 37.7305 87.2207 37.5221 87.2598 37.3789C87.3053 37.2357 87.3704 37.138 87.4551 37.0859C87.5397 37.0273 87.6602 36.998 87.8164 36.998H89.252V31.9785H88.1094C87.9531 31.9785 87.8327 31.9525 87.748 31.9004C87.6634 31.8483 87.5983 31.7507 87.5527 31.6074C87.5137 31.4642 87.4941 31.2559 87.4941 30.9824C87.4941 30.709 87.5137 30.5007 87.5527 30.3574C87.5983 30.2142 87.6634 30.1165 87.748 30.0645C87.8327 30.0059 87.9531 29.9766 88.1094 29.9766H90.7852C91.0065 29.9766 91.1628 30.0254 91.2539 30.123C91.3516 30.2142 91.4004 30.3704 91.4004 30.5918V32.7109C91.8887 31.7669 92.4486 31.041 93.0801 30.5332C93.7181 30.0189 94.3626 29.7617 95.0137 29.7617ZM104.086 29.7617C105.076 29.7617 105.919 29.9766 106.615 30.4062C107.312 30.8294 107.836 31.4219 108.188 32.1836C108.546 32.9388 108.725 33.8047 108.725 34.7812C108.725 35.0026 108.676 35.1589 108.578 35.25C108.487 35.3411 108.331 35.3867 108.109 35.3867H101.84C101.964 35.9076 102.227 36.3079 102.631 36.5879C103.041 36.8613 103.559 36.998 104.184 36.998C105.193 36.998 106.286 36.819 107.465 36.4609C107.543 36.4349 107.621 36.4219 107.699 36.4219C107.842 36.4219 107.966 36.487 108.07 36.6172C108.174 36.7474 108.269 36.9688 108.354 37.2812C108.419 37.5221 108.451 37.7272 108.451 37.8965C108.451 38.0658 108.412 38.1992 108.334 38.2969C108.262 38.388 108.142 38.4629 107.973 38.5215C107.322 38.7363 106.658 38.9056 105.98 39.0293C105.303 39.153 104.639 39.2148 103.988 39.2148C102.999 39.2148 102.146 39.013 101.43 38.6094C100.714 38.2057 100.167 37.6491 99.7891 36.9395C99.418 36.2233 99.2324 35.4062 99.2324 34.4883C99.2324 33.5768 99.4277 32.763 99.8184 32.0469C100.209 31.3307 100.772 30.7708 101.508 30.3672C102.243 29.9635 103.103 29.7617 104.086 29.7617ZM104.086 31.9785C102.895 31.9785 102.159 32.4798 101.879 33.4824H106.176C106.065 33.0072 105.827 32.6393 105.463 32.3789C105.105 32.112 104.646 31.9785 104.086 31.9785Z" fill="black"/>
</svg>
